Coordinates
version=1
nRows=13
nColumns=40
inDegrees=yes

Units are S.I. units (second, meters, Newtons, ...)
Angles are in degrees.

endheader
time	pelvis_tilt	pelvis_list	pelvis_rotation	pelvis_tx	pelvis_ty	pelvis_tz	hip_flexion_r	hip_adduction_r	hip_rotation_r	knee_angle_r	knee_angle_r_beta	ankle_angle_r	subtalar_angle_r	mtp_angle_r	hip_flexion_l	hip_adduction_l	hip_rotation_l	knee_angle_l	knee_angle_l_beta	ankle_angle_l	subtalar_angle_l	mtp_angle_l	lumbar_extension	lumbar_bending	lumbar_rotation	arm_flex_r	arm_add_r	arm_rot_r	elbow_flex_r	pro_sup_r	wrist_flex_r	wrist_dev_r	arm_flex_l	arm_add_l	arm_rot_l	elbow_flex_l	pro_sup_l	wrist_flex_l	wrist_dev_l
     22.42500000	     -5.07846707	     -5.81338635	      4.32797646	      1.06366989	      0.91979452	      0.48598346	      1.95006834	      4.43730611	    -16.22625430	     12.29203293	     12.29203293	     16.67386062	      1.82182108	     -3.98612044	     30.70818106	    -10.10387379	     -1.40584657	     23.10548054	     23.10548054	      3.25264551	    -12.34378768	      6.12403217	     -9.89593352	      4.96933463	      5.16398341	     25.62181256	    -14.83945614	     -1.30249341	     86.91327256	     43.98212984	      0.00000000	      0.00000000	     -6.39117334	     -8.03120585	     -8.21985725	     26.36874620	     46.22426699	      0.00000000	      0.00000000
     22.43835714	     -5.16086322	     -5.89016164	      4.06958137	      1.06478155	      0.91920228	      0.48413053	      1.51447932	      4.34081727	    -16.38689345	     12.20621348	     12.20621348	     16.92983451	      2.72031813	     -3.90034463	     30.08888176	    -10.08645064	     -1.45754360	     23.13415780	     23.13415780	      2.57121622	    -13.16257435	      4.83068088	     -9.66772931	      4.93686408	      4.82576922	     25.99199865	    -14.33083638	     -0.04971833	     85.86774014	     44.03852890	      0.00000000	      0.00000000	     -7.00102329	     -7.90776118	     -8.71738931	     26.77228855	     46.29059800	      0.00000000	      0.00000000
     22.45171429	     -5.25990145	     -5.94719844	      3.86022275	      1.06576975	      0.91876315	      0.48208579	      1.20521055	      4.23606145	    -16.17594992	     12.27627199	     12.27627199	     17.03989418	      2.80441294	     -3.92876584	     29.71064164	    -10.06852015	     -1.54854373	     23.46409970	     23.46409970	      2.70118182	    -13.45799475	      4.72716070	     -9.49201679	      4.89902275	      4.94359856	     25.62359109	    -14.02711446	      0.13507797	     85.74255598	     44.03879114	      0.00000000	      0.00000000	     -7.00985973	     -7.86583976	     -8.73848949	     26.77550928	     46.29342750	      0.00000000	      0.00000000
     22.46507143	     -5.42062111	     -6.02732751	      3.76808639	      1.06649592	      0.91859136	      0.47973630	      1.00137624	      4.13413505	    -16.11390452	     12.35270518	     12.35270518	     16.97119119	      2.83214314	     -3.91025321	     29.41517058	    -10.01226658	     -1.52972780	     23.60481791	     23.60481791	      2.82487766	    -13.54844615	      4.66682918	     -9.26570318	      4.92450502	      4.88620211	     25.50531485	    -13.96649251	      0.17615613	     85.70379966	     44.03887179	      0.00000000	      0.00000000	     -6.90789036	     -7.86842641	     -8.73790385	     26.81192220	     46.29502799	      0.00000000	      0.00000000
     22.47842857	     -5.33768994	     -5.96137439	      3.72033740	      1.06739610	      0.91874164	      0.47709503	      0.60208631	      3.83935345	    -15.98962257	     12.61979970	     12.61979970	     17.04080256	      2.86211902	     -3.93646148	     29.10063202	     -9.78923351	     -1.40737911	     24.18985069	     24.18985069	      3.23965782	    -14.04019145	      4.43787087	     -9.35056586	      4.76246252	      4.90227622	     24.61605502	    -13.55299611	      0.50672848	     85.22109689	     44.04436809	      0.00000000	      0.00000000	     -6.57023193	     -7.85743186	     -8.73129229	     26.88653852	     46.29937714	      0.00000000	      0.00000000
     22.49178571	     -5.46044253	     -5.88863969	      3.70949813	      1.06784364	      0.91885622	      0.47408382	      0.72206456	      3.39420308	    -16.09756431	     13.41732373	     13.41732373	     17.14103587	      2.90837402	     -3.98433769	     28.99204716	     -9.45212976	     -1.08188495	     24.57948780	     24.57948780	      3.54813382	    -14.71931770	      4.50340742	     -9.19893046	      4.63142232	      4.94973162	     24.23597207	    -13.66345131	      0.79635957	     83.81285625	     44.10036794	      0.00000000	      0.00000000	     -5.97655700	     -7.87698874	     -8.68340505	     26.75360219	     46.30054464	      0.00000000	      0.00000000
     22.50514286	     -5.47740472	     -5.79790681	      3.74228273	      1.06837054	      0.91933350	      0.47088499	      0.68150561	      2.95341694	    -16.14387420	     14.11845290	     14.11845290	     17.13263660	      2.84274549	     -3.97826622	     28.76347006	     -9.13649193	     -0.92292514	     24.93034777	     24.93034777	      4.04525351	    -14.98336467	      4.60276833	     -9.19320642	      4.51564623	      4.81200937	     23.73243343	    -13.59775186	      1.05098433	     82.70723838	     44.14513536	      0.00000000	      0.00000000	     -5.40337317	     -7.92922696	     -8.60386079	     26.69597607	     46.29553415	      0.00000000	      0.00000000
     22.51850000	     -5.39433369	     -5.78922932	      3.87410724	      1.06905256	      0.92008637	      0.46750685	      0.41502930	      2.65634086	    -16.16587001	     14.57208569	     14.57208569	     16.97432785	      2.71668495	     -3.97173928	     28.43205064	     -8.88974205	     -0.74584615	     25.22428700	     25.22428700	      4.52892851	    -15.11408599	      4.45302871	     -9.29091657	      4.52403158	      4.52445780	     22.93119731	    -13.47131246	      1.22220365	     82.20410078	     44.15622117	      0.00000000	      0.00000000	     -4.84073696	     -7.99032389	     -8.57307587	     26.87685735	     46.29968334	      0.00000000	      0.00000000
     22.53185714	     -5.46941289	     -5.62373244	      3.82753358	      1.06943103	      0.92061380	      0.46402518	      0.79041011	      2.00137686	    -16.13576801	     15.94133376	     15.94133376	     16.98400589	      2.38451973	     -4.19975036	     28.21924704	     -8.52077806	     -0.75634195	     25.51273490	     25.51273490	      5.12993025	    -15.21512407	      4.69457736	     -9.21700184	      4.32343241	      4.77203572	     22.23848601	    -13.83014090	      1.32123678	     80.42038313	     44.22464116	      0.00000000	      0.00000000	     -3.98111630	     -8.06696604	     -8.42901983	     27.11946573	     46.28747622	      0.00000000	      0.00000000
     22.54521429	     -5.39555584	     -5.50493156	      3.82832635	      1.06999762	      0.92136377	      0.46051930	      0.92760811	      1.44730101	    -16.04823946	     17.15759797	     17.15759797	     16.95710855	      2.02412578	     -4.44744418	     27.82655140	     -8.23036037	     -0.89603342	     25.76283859	     25.76283859	      5.72998770	    -15.24581977	      4.85256987	     -9.27444263	      4.22266099	      4.80262860	     21.47713929	    -13.99955615	      1.41685335	     78.90166806	     44.28077403	      0.00000000	      0.00000000	     -3.20435744	     -8.21463276	     -8.29305144	     27.43787424	     46.27535021	      0.00000000	      0.00000000
     22.55857143	     -5.37565690	     -5.42850794	      3.81072161	      1.07052727	      0.92211181	      0.45704946	      1.22771172	      0.91311219	    -15.91837935	     18.53016616	     18.53016616	     16.75238379	      1.57733188	     -4.77858551	     27.42877419	     -7.98244580	     -0.99666726	     25.90635763	     25.90635763	      6.34433281	    -15.10903940	      4.97945780	     -9.27608712	      4.11612831	      4.85104837	     20.67219696	    -14.13561648	      1.50203946	     77.21332979	     44.34286269	      0.00000000	      0.00000000	     -2.45522242	     -8.34054575	     -8.12809625	     27.88124318	     46.25720453	      0.00000000	      0.00000000
     22.57192857	     -5.36319933	     -5.36045665	      3.75499104	      1.07106941	      0.92278489	      0.45358868	      1.67734936	      0.36239004	    -15.66965839	     20.15263400	     20.15263400	     16.50064516	      0.95631533	     -5.36087202	     27.00465598	     -7.77267389	     -1.22116317	     26.00992124	     26.00992124	      6.93716612	    -14.88188238	      5.12196552	     -9.26095275	      4.06013936	      4.88411091	     19.88706615	    -14.23384910	      1.56421569	     75.15924422	     44.42052194	      0.00000000	      0.00000000	     -1.73979376	     -8.51486234	     -7.90291863	     28.50925788	     46.22770761	      0.00000000	      0.00000000
     22.58528571	     -5.29736081	     -5.32785320	      3.64670770	      1.07162459	      0.92348454	      0.45032736	      2.14119627	     -0.10787105	    -15.22386781	     21.80489360	     21.80489360	     15.69155234	     -0.17844057	     -7.15080040	     26.53515053	     -7.65434183	     -1.53883605	     26.17791039	     26.17791039	      7.75257033	    -14.52919538	      5.65261682	     -9.21027819	      3.99569567	      4.38675098	     19.97685069	    -13.72462830	      1.68300729	     71.34583994	     44.59099483	      0.00000000	      0.00000000	     -1.63804522	     -8.92661728	     -7.05029916	     29.88746083	     46.08229287	      0.00000000	      0.00000000
